# xmcd CD database file
#
# Track frame offsets:
#	182
#	19452
#	34300
#	50715
#	72000
#	85577
#	106482
#	128980
#	145237
#
# Disc length: 2154 seconds
#
# Revision: 0
# Processed by: cddbd v1.5.1PL2 Copyright (c) Steve Scherf et al.
# Submitted via: CDex 1.51
#
DISCID=7f086809
DTITLE=Michel Audrey - Michel Audrey
DYEAR=1993
DGENRE=Québécois
TTITLE0=Marie-Blanche
TTITLE1=je n'veux que toi
TTITLE2=c'est pardonné
TTITLE3=Cindy
TTITLE4=l'ennemi
TTITLE5=j'en ai rien à faire
TTITLE6=ne m'oublie pas
TTITLE7=jaloux
TTITLE8=coeur oublié
EXTD=YEAR: 1993
EXTT0=
EXTT1=
EXTT2=
EXTT3=
EXTT4=
EXTT5=
EXTT6=
EXTT7=
EXTT8=
PLAYORDER=
